<?xml version="1.0" standalone="no"?>
<!DOCTYPE svg PUBLIC "-//W3C//DTD SVG 20010904//EN"
 "http://www.w3.org/TR/2001/REC-SVG-20010904/DTD/svg10.dtd">
<svg version="1.0" xmlns="http://www.w3.org/2000/svg"
 width="512.000000pt" height="512.000000pt" viewBox="0 0 512.000000 512.000000"
 preserveAspectRatio="xMidYMid meet">

<g transform="translate(0.000000,512.000000) scale(0.100000,-0.100000)"
fill="#000000" stroke="none">
<path d="M0 2560 l0 -2560 2560 0 2560 0 0 2560 0 2560 -2560 0 -2560 0 0
-2560z m1731 1464 c15 -15 38 -32 51 -38 22 -11 32 -27 63 -96 21 -49 330
-437 429 -540 45 -47 106 -115 135 -153 69 -87 113 -100 154 -44 l21 27 -37
69 c-52 97 -51 105 31 145 37 18 85 43 107 55 58 31 112 28 171 -11 46 -31 49
-36 52 -80 5 -70 -53 -191 -98 -207 -18 -6 -41 -11 -51 -11 -17 0 -44 -54 -34
-70 3 -5 38 6 78 24 43 20 112 40 172 51 55 10 179 42 275 72 202 63 455 123
518 123 64 0 86 -15 78 -53 -7 -36 -32 -67 -54 -67 -9 0 -30 5 -47 11 -28 11
-44 7 -156 -39 -68 -27 -139 -53 -157 -57 -18 -4 -75 -26 -125 -50 -88 -41
-216 -87 -340 -121 -54 -15 -62 -21 -108 -82 -28 -39 -56 -90 -65 -122 -9 -30
-32 -95 -52 -143 -40 -102 -47 -71 56 -257 l57 -105 94 -50 c51 -28 132 -80
179 -116 203 -153 236 -175 302 -193 178 -50 349 -128 557 -256 96 -59 164
-82 284 -95 49 -5 61 -11 94 -47 31 -32 36 -43 28 -57 -11 -18 -29 -18 -203
-6 -104 8 -106 8 -163 51 -38 28 -84 51 -130 65 -245 71 -399 120 -602 191
-333 117 -398 135 -579 159 l-163 22 -84 -50 c-116 -70 -306 -164 -483 -239
-81 -35 -163 -75 -182 -89 -56 -43 -134 -72 -301 -113 -208 -52 -356 -99 -377
-120 -10 -9 -28 -35 -40 -57 -21 -39 -23 -40 -71 -37 -28 1 -114 4 -192 5
-132 2 -144 4 -165 24 l-22 22 35 15 c19 8 63 22 98 31 35 9 105 37 155 62 50
25 114 54 141 63 67 23 573 294 605 324 14 13 144 103 290 199 345 229 317
206 325 275 3 31 13 107 21 167 15 105 15 115 -5 216 -11 58 -25 118 -31 133
-15 41 -12 79 11 133 17 39 19 59 14 108 -10 85 -19 103 -141 265 -59 80 -166
235 -236 345 -86 134 -140 207 -162 222 -76 49 -112 131 -86 194 15 36 26 36
61 3z"/>
</g>
</svg>
