<?xml version="1.0" standalone="no"?>
<!DOCTYPE svg PUBLIC "-//W3C//DTD SVG 20010904//EN"
 "http://www.w3.org/TR/2001/REC-SVG-20010904/DTD/svg10.dtd">
<svg version="1.0" xmlns="http://www.w3.org/2000/svg"
 width="300.000000pt" height="168.000000pt" viewBox="0 0 300.000000 168.000000"
 preserveAspectRatio="xMidYMid meet">

<g transform="translate(0.000000,168.000000) scale(0.100000,-0.100000)"
fill="#000000" stroke="none">
<path d="M0 840 l0 -840 1500 0 1500 0 0 840 0 840 -1500 0 -1500 0 0 -840z
m2248 180 c65 -82 86 -97 80 -58 -2 17 4 25 25 32 36 13 57 -5 39 -34 -11 -18
-10 -19 21 -14 17 4 51 12 75 20 23 8 52 14 62 14 42 0 16 -16 -68 -43 -81
-25 -90 -31 -105 -63 -16 -33 -16 -37 -1 -62 18 -31 89 -80 150 -103 23 -9 52
-24 65 -33 13 -9 33 -16 46 -16 12 0 25 -4 28 -10 8 -13 -50 -13 -73 0 -35 19
-198 69 -232 71 -24 1 -59 -12 -112 -40 -42 -22 -98 -45 -125 -51 -26 -6 -54
-17 -63 -25 -10 -9 -26 -11 -49 -7 l-34 7 29 14 c16 7 52 21 79 31 28 9 78 36
113 58 35 22 67 42 72 44 10 3 14 59 12 138 -2 50 -8 62 -57 128 -30 40 -55
75 -55 77 0 17 23 -5 78 -75z m-1390 -56 c2 -15 -3 -23 -17 -27 -26 -6 -29
-45 -4 -43 12 0 19 -7 21 -21 3 -18 -2 -23 -17 -23 -19 0 -21 -6 -21 -60 0
-57 -1 -60 -25 -60 -23 0 -25 4 -26 48 -1 26 -1 53 0 60 1 6 -6 12 -17 12 -13
0 -25 -20 -47 -80 -33 -91 -52 -113 -95 -113 -37 0 -41 3 -34 30 4 14 11 20
21 16 9 -4 21 1 29 11 10 15 8 28 -15 80 -46 101 -47 106 -16 106 23 0 30 -8
48 -51 l22 -50 16 48 c14 45 18 48 52 51 33 3 37 6 37 32 0 52 81 83 88 34z
m1302 -109 l0 -125 -25 0 -25 0 0 125 0 125 25 0 25 0 0 -125z m-1234 100 c7
-18 -13 -45 -33 -45 -17 0 -27 24 -19 45 7 20 45 19 52 0z m94 -35 c0 -13 7
-20 20 -20 15 0 20 -7 20 -25 0 -18 -5 -25 -20 -25 -16 0 -20 -7 -20 -35 0
-28 4 -35 20 -35 15 0 20 -7 20 -25 0 -22 -4 -25 -35 -25 -44 0 -67 32 -62 84
4 30 1 36 -14 36 -23 0 -26 38 -4 46 8 4 15 15 15 25 0 14 7 19 30 19 23 0 30
-4 30 -20z m-650 -32 c0 -9 3 -9 12 0 15 15 50 16 65 1 8 -8 17 -8 31 0 29 15
52 14 74 -6 14 -13 18 -31 18 -85 0 -66 -1 -68 -25 -68 -24 0 -25 3 -25 55 0
42 -4 57 -16 62 -23 8 -34 -14 -34 -69 0 -44 -2 -48 -25 -48 -24 0 -25 3 -25
55 0 42 -4 57 -16 62 -23 8 -34 -14 -34 -69 0 -44 -2 -48 -25 -48 -25 0 -25 1
-25 85 0 84 0 85 25 85 14 0 25 -5 25 -12z m550 -73 c0 -84 0 -85 -25 -85 -25
0 -25 1 -25 85 0 84 0 85 25 85 25 0 25 -1 25 -85z m210 75 c0 -6 8 -5 20 2
13 9 27 9 46 3 32 -12 47 -53 42 -118 -3 -37 -6 -42 -30 -45 -28 -3 -28 -3
-28 53 0 42 -4 57 -16 62 -23 8 -34 -14 -34 -69 0 -44 -2 -48 -25 -48 -25 0
-25 1 -25 85 0 84 0 85 25 85 14 0 25 -5 25 -10z m265 -15 c14 -13 25 -36 25
-50 0 -22 -4 -25 -37 -26 -21 -1 -47 0 -58 1 -19 2 -19 1 -2 -16 15 -16 20
-17 38 -5 18 11 24 10 38 -4 15 -15 15 -17 -3 -31 -55 -40 -140 3 -140 71 0
74 88 112 139 60z m156 14 c20 -10 20 -12 4 -29 -13 -15 -22 -17 -36 -10 -10
6 -20 6 -23 1 -3 -5 6 -12 22 -16 15 -4 33 -11 39 -17 20 -16 16 -66 -6 -78
-25 -13 -77 -13 -102 1 -19 10 -20 12 -4 29 14 15 21 17 36 7 14 -9 21 -9 31
1 9 9 8 12 -8 12 -31 0 -64 29 -64 55 0 44 64 69 111 44z m143 -2 c16 -12 16
-14 2 -26 -9 -7 -22 -11 -31 -8 -8 4 -17 2 -20 -3 -3 -5 7 -12 22 -16 39 -9
53 -23 53 -50 0 -30 -35 -54 -81 -54 -48 0 -66 20 -40 44 12 11 21 14 26 7 8
-13 35 -15 35 -2 0 5 -14 12 -30 16 -49 11 -63 52 -30 85 23 23 68 26 94 7z
m96 1 c0 -9 3 -9 12 0 18 18 52 15 81 -8 72 -57 20 -168 -68 -146 -24 6 -25 4
-25 -34 0 -36 -2 -40 -25 -40 l-25 0 0 120 0 120 25 0 c14 0 25 -5 25 -12z
m269 -6 c18 -14 23 -29 24 -82 l2 -65 -59 -2 c-72 -3 -96 8 -96 46 0 35 17 50
65 58 25 4 33 9 26 16 -7 7 -18 7 -35 0 -17 -8 -27 -8 -35 0 -17 17 -13 27 12
37 36 14 73 11 96 -8z"/>
<path d="M1323 853 c-23 -9 -14 -18 16 -18 22 0 27 3 19 13 -11 13 -15 13 -35
5z"/>
<path d="M1802 841 c-8 -4 -12 -19 -10 -32 2 -19 9 -24 33 -24 27 0 30 3 30
30 0 22 -5 31 -20 33 -11 1 -26 -2 -33 -7z"/>
<path d="M1987 793 c-14 -13 -6 -24 15 -21 27 4 36 28 11 28 -11 0 -23 -3 -26
-7z"/>
</g>
</svg>
